<mxfile host="app.diagrams.net" modified="2023-07-07T07:00:34.946Z" agent="Mozilla/5.0 (X11; Ubuntu; Linux x86_64; rv:109.0) Gecko/20100101 Firefox/114.0" etag="xNda-1YO0Ju4d-aq3hI0" version="21.6.1" type="device">
  <diagram name="Page-1" id="eJVywO5zbfRkS_b05gHA">
    <mxGraphModel dx="1437" dy="1126" grid="1" gridSize="10" guides="1" tooltips="1" connect="1" arrows="1" fold="1" page="1" pageScale="1" pageWidth="827" pageHeight="1169" math="0" shadow="0">
      <root>
        <mxCell id="0" />
        <mxCell id="1" parent="0" />
        <mxCell id="e7LzjMyNXIabxneZxsTQ-1" value="&lt;p style=&quot;margin:0px;margin-top:6px;text-align:center;&quot;&gt;&lt;b&gt;Category&lt;/b&gt;&lt;/p&gt;&lt;hr&gt;&lt;p style=&quot;margin:0px;margin-left:8px;&quot;&gt;+ id: int&lt;/p&gt;&lt;p style=&quot;margin:0px;margin-left:8px;&quot;&gt;+ name : string&lt;br&gt;&lt;/p&gt;" style="align=left;overflow=fill;html=1;dropTarget=0;whiteSpace=wrap;" parent="1" vertex="1">
          <mxGeometry x="40" y="362.5" width="180" height="65" as="geometry" />
        </mxCell>
        <mxCell id="e7LzjMyNXIabxneZxsTQ-2" value="" style="shape=component;jettyWidth=8;jettyHeight=4;" parent="e7LzjMyNXIabxneZxsTQ-1" vertex="1">
          <mxGeometry x="1" width="20" height="20" relative="1" as="geometry">
            <mxPoint x="-24" y="4" as="offset" />
          </mxGeometry>
        </mxCell>
        <mxCell id="e7LzjMyNXIabxneZxsTQ-5" value="&lt;p style=&quot;margin:0px;margin-top:6px;text-align:center;&quot;&gt;&lt;b&gt;Post&lt;/b&gt;&lt;/p&gt;&lt;hr&gt;&lt;p style=&quot;margin:0px;margin-left:8px;&quot;&gt;+ id: int&lt;/p&gt;&lt;p style=&quot;margin:0px;margin-left:8px;&quot;&gt;+ title : string&lt;br&gt;&lt;/p&gt;&lt;p style=&quot;margin:0px;margin-left:8px;&quot;&gt;+ chapo : string&lt;br&gt;&lt;/p&gt;&lt;p style=&quot;margin:0px;margin-left:8px;&quot;&gt;+ content : string&lt;/p&gt;&lt;p style=&quot;margin:0px;margin-left:8px;&quot;&gt;+ image : string&lt;br&gt;&lt;/p&gt;&lt;p style=&quot;margin:0px;margin-left:8px;&quot;&gt;+ creation_date : Datetime&lt;/p&gt;&lt;div&gt;&amp;nbsp; + modification_date : Datetime&lt;/div&gt;&lt;div&gt;&amp;nbsp; + category_id : int&lt;/div&gt;&lt;div&gt;&amp;nbsp; + user_id : int&lt;br&gt;&lt;/div&gt;&lt;p style=&quot;margin:0px;margin-left:8px;&quot;&gt;&lt;/p&gt;&lt;p style=&quot;margin:0px;margin-left:8px;&quot;&gt;&lt;br&gt;&lt;/p&gt;" style="align=left;overflow=fill;html=1;dropTarget=0;whiteSpace=wrap;" parent="1" vertex="1">
          <mxGeometry x="310" y="310" width="180" height="170" as="geometry" />
        </mxCell>
        <mxCell id="e7LzjMyNXIabxneZxsTQ-6" value="" style="shape=component;jettyWidth=8;jettyHeight=4;" parent="e7LzjMyNXIabxneZxsTQ-5" vertex="1">
          <mxGeometry x="1" width="20" height="20" relative="1" as="geometry">
            <mxPoint x="-24" y="4" as="offset" />
          </mxGeometry>
        </mxCell>
        <mxCell id="e7LzjMyNXIabxneZxsTQ-9" value="&lt;p style=&quot;margin:0px;margin-top:6px;text-align:center;&quot;&gt;&lt;b&gt;Comment&lt;/b&gt;&lt;br&gt;&lt;/p&gt;&lt;hr&gt;&lt;p style=&quot;margin:0px;margin-left:8px;&quot;&gt;+ id: int&lt;/p&gt;&lt;p style=&quot;margin:0px;margin-left:8px;&quot;&gt;+ content : string&lt;/p&gt;&lt;p style=&quot;margin:0px;margin-left:8px;&quot;&gt;+ statut : boolean&lt;/p&gt;&lt;p style=&quot;margin:0px;margin-left:8px;&quot;&gt;+ creation_date : Datetime&lt;/p&gt;&lt;p style=&quot;margin:0px;margin-left:8px;&quot;&gt;+ modification_date : Datetime&lt;/p&gt;&lt;p style=&quot;margin:0px;margin-left:8px;&quot;&gt;+ user_id : int&lt;/p&gt;&lt;p style=&quot;margin:0px;margin-left:8px;&quot;&gt;+ post_id : int&lt;br&gt;&lt;/p&gt;&lt;p style=&quot;margin:0px;margin-left:8px;&quot;&gt;&lt;br&gt;&lt;/p&gt;" style="align=left;overflow=fill;html=1;dropTarget=0;whiteSpace=wrap;" parent="1" vertex="1">
          <mxGeometry x="616.95" y="326.25" width="180" height="137.5" as="geometry" />
        </mxCell>
        <mxCell id="e7LzjMyNXIabxneZxsTQ-10" value="" style="shape=component;jettyWidth=8;jettyHeight=4;" parent="e7LzjMyNXIabxneZxsTQ-9" vertex="1">
          <mxGeometry x="1" width="20" height="20" relative="1" as="geometry">
            <mxPoint x="-24" y="4" as="offset" />
          </mxGeometry>
        </mxCell>
        <mxCell id="e7LzjMyNXIabxneZxsTQ-11" value="" style="endArrow=none;html=1;rounded=0;entryX=0.5;entryY=0;entryDx=0;entryDy=0;exitX=1;exitY=1;exitDx=0;exitDy=0;" parent="1" source="3Lf0v0tyKkGqnqC3-85B-2" target="e7LzjMyNXIabxneZxsTQ-9" edge="1">
          <mxGeometry width="50" height="50" relative="1" as="geometry">
            <mxPoint x="210" y="440" as="sourcePoint" />
            <mxPoint x="392.0799999999999" y="471.1199999999999" as="targetPoint" />
          </mxGeometry>
        </mxCell>
        <mxCell id="e7LzjMyNXIabxneZxsTQ-18" value="1" style="edgeLabel;html=1;align=center;verticalAlign=middle;resizable=0;points=[];" parent="e7LzjMyNXIabxneZxsTQ-11" vertex="1" connectable="0">
          <mxGeometry x="-0.76" y="2" relative="1" as="geometry">
            <mxPoint as="offset" />
          </mxGeometry>
        </mxCell>
        <mxCell id="e7LzjMyNXIabxneZxsTQ-19" value="0,,,n" style="edgeLabel;html=1;align=center;verticalAlign=middle;resizable=0;points=[];" parent="e7LzjMyNXIabxneZxsTQ-11" vertex="1" connectable="0">
          <mxGeometry x="0.76" relative="1" as="geometry">
            <mxPoint x="-8" as="offset" />
          </mxGeometry>
        </mxCell>
        <mxCell id="3Lf0v0tyKkGqnqC3-85B-2" value="&lt;p style=&quot;margin:0px;margin-top:6px;text-align:center;&quot;&gt;&lt;b&gt;User&lt;/b&gt;&lt;br&gt;&lt;/p&gt;&lt;hr&gt;&lt;p style=&quot;margin:0px;margin-left:8px;&quot;&gt;+ id: int&lt;br&gt;+ last_name: string&lt;/p&gt;&lt;p style=&quot;margin:0px;margin-left:8px;&quot;&gt;+ first_name : string&lt;/p&gt;&lt;p style=&quot;margin:0px;margin-left:8px;&quot;&gt;+ login : string&lt;/p&gt;&lt;p style=&quot;margin:0px;margin-left:8px;&quot;&gt;+ password : string&lt;/p&gt;&lt;p style=&quot;margin:0px;margin-left:8px;&quot;&gt;+ mail : string&lt;/p&gt;&lt;p style=&quot;margin:0px;margin-left:8px;&quot;&gt;+ role : boolean&lt;/p&gt;&lt;p style=&quot;margin:0px;margin-left:8px;&quot;&gt;+ avatar : string&lt;/p&gt;&lt;p style=&quot;margin:0px;margin-left:8px;&quot;&gt;+ creation_date : Datetime&lt;/p&gt;&amp;nbsp; + modification_date : Datetime" style="align=left;overflow=fill;html=1;dropTarget=0;whiteSpace=wrap;" parent="1" vertex="1">
          <mxGeometry x="310" y="50" width="180" height="180" as="geometry" />
        </mxCell>
        <mxCell id="3Lf0v0tyKkGqnqC3-85B-3" value="" style="shape=component;jettyWidth=8;jettyHeight=4;" parent="3Lf0v0tyKkGqnqC3-85B-2" vertex="1">
          <mxGeometry x="1" width="20" height="20" relative="1" as="geometry">
            <mxPoint x="-24" y="4" as="offset" />
          </mxGeometry>
        </mxCell>
        <mxCell id="3Lf0v0tyKkGqnqC3-85B-16" value="" style="endArrow=none;html=1;rounded=0;exitX=1;exitY=0.5;exitDx=0;exitDy=0;entryX=0;entryY=0.5;entryDx=0;entryDy=0;" parent="1" source="e7LzjMyNXIabxneZxsTQ-1" target="e7LzjMyNXIabxneZxsTQ-5" edge="1">
          <mxGeometry width="50" height="50" relative="1" as="geometry">
            <mxPoint x="70" y="420" as="sourcePoint" />
            <mxPoint x="119.38000000000011" y="469.03999999999996" as="targetPoint" />
          </mxGeometry>
        </mxCell>
        <mxCell id="3Lf0v0tyKkGqnqC3-85B-17" value="1" style="edgeLabel;html=1;align=center;verticalAlign=middle;resizable=0;points=[];" parent="3Lf0v0tyKkGqnqC3-85B-16" vertex="1" connectable="0">
          <mxGeometry x="-0.76" y="2" relative="1" as="geometry">
            <mxPoint as="offset" />
          </mxGeometry>
        </mxCell>
        <mxCell id="3Lf0v0tyKkGqnqC3-85B-18" value="0,,,n" style="edgeLabel;html=1;align=center;verticalAlign=middle;resizable=0;points=[];" parent="3Lf0v0tyKkGqnqC3-85B-16" vertex="1" connectable="0">
          <mxGeometry x="0.76" relative="1" as="geometry">
            <mxPoint x="-8" as="offset" />
          </mxGeometry>
        </mxCell>
        <mxCell id="1Y_16dvz0a0Ik-WhaUs7-1" value="" style="endArrow=none;html=1;rounded=0;entryX=0.5;entryY=0;entryDx=0;entryDy=0;exitX=0.5;exitY=1;exitDx=0;exitDy=0;" parent="1" source="3Lf0v0tyKkGqnqC3-85B-2" target="e7LzjMyNXIabxneZxsTQ-5" edge="1">
          <mxGeometry width="50" height="50" relative="1" as="geometry">
            <mxPoint x="400" y="240" as="sourcePoint" />
            <mxPoint x="617" y="320" as="targetPoint" />
          </mxGeometry>
        </mxCell>
        <mxCell id="1Y_16dvz0a0Ik-WhaUs7-2" value="1" style="edgeLabel;html=1;align=center;verticalAlign=middle;resizable=0;points=[];" parent="1Y_16dvz0a0Ik-WhaUs7-1" vertex="1" connectable="0">
          <mxGeometry x="-0.76" y="2" relative="1" as="geometry">
            <mxPoint as="offset" />
          </mxGeometry>
        </mxCell>
        <mxCell id="1Y_16dvz0a0Ik-WhaUs7-3" value="0,,,n" style="edgeLabel;html=1;align=center;verticalAlign=middle;resizable=0;points=[];" parent="1Y_16dvz0a0Ik-WhaUs7-1" vertex="1" connectable="0">
          <mxGeometry x="0.76" relative="1" as="geometry">
            <mxPoint x="-8" as="offset" />
          </mxGeometry>
        </mxCell>
        <mxCell id="1Y_16dvz0a0Ik-WhaUs7-4" value="" style="endArrow=none;html=1;rounded=0;exitX=1;exitY=0.5;exitDx=0;exitDy=0;entryX=0;entryY=0.5;entryDx=0;entryDy=0;" parent="1" source="e7LzjMyNXIabxneZxsTQ-5" target="e7LzjMyNXIabxneZxsTQ-9" edge="1">
          <mxGeometry width="50" height="50" relative="1" as="geometry">
            <mxPoint x="210" y="240" as="sourcePoint" />
            <mxPoint x="540" y="530" as="targetPoint" />
          </mxGeometry>
        </mxCell>
        <mxCell id="1Y_16dvz0a0Ik-WhaUs7-5" value="1" style="edgeLabel;html=1;align=center;verticalAlign=middle;resizable=0;points=[];" parent="1Y_16dvz0a0Ik-WhaUs7-4" vertex="1" connectable="0">
          <mxGeometry x="-0.76" y="2" relative="1" as="geometry">
            <mxPoint as="offset" />
          </mxGeometry>
        </mxCell>
        <mxCell id="1Y_16dvz0a0Ik-WhaUs7-6" value="0,,,n" style="edgeLabel;html=1;align=center;verticalAlign=middle;resizable=0;points=[];" parent="1Y_16dvz0a0Ik-WhaUs7-4" vertex="1" connectable="0">
          <mxGeometry x="0.76" relative="1" as="geometry">
            <mxPoint x="-8" as="offset" />
          </mxGeometry>
        </mxCell>
        <mxCell id="zPbqyLdx5YzoW2IveV4s-1" value="Diagramme de classe" style="text;html=1;align=center;verticalAlign=middle;resizable=0;points=[];autosize=1;strokeColor=none;fillColor=none;" parent="1" vertex="1">
          <mxGeometry x="330" width="140" height="30" as="geometry" />
        </mxCell>
      </root>
    </mxGraphModel>
  </diagram>
</mxfile>
